<svg xmlns="http://www.w3.org/2000/svg"  viewBox="0 0 50 50" width="50px" height="50px"><path d="M47,42.462c0.001,1.198-0.467,2.328-1.318,3.181c-0.852,0.853-1.979,1.323-3.178,1.323L7.538,47c-0.002,0-0.003,0-0.005,0	c-1.196,0-2.324-0.468-3.176-1.318c-0.853-0.851-1.323-1.98-1.324-3.178L3,7.538C2.999,6.34,3.467,5.21,4.318,4.357	c0.852-0.853,1.98-1.323,3.178-1.323L42.462,3c0.002,0,0.003,0,0.005,0c1.196,0,2.324,0.468,3.176,1.318	c0.853,0.851,1.323,1.98,1.324,3.178L47,42.462z M39,34.957v-20c0-0.552-0.447-1-1-1s-1,0.448-1,1v20c0,0.552,0.447,1,1,1	S39,35.509,39,34.957z M32.545,35.795C32.829,35.61,33,35.295,33,34.957v-19c0-1.103-0.897-2-2-2H18c-1.103,0-2,0.897-2,2v3.44	c0,0.552,0.447,1,1,1s1-0.448,1-1v-3.44h13v17.461l-3.094-1.375c-0.128-0.057-0.267-0.086-0.406-0.086H13v-7h11c0.553,0,1-0.448,1-1	s-0.447-1-1-1H12c-0.553,0-1,0.448-1,1v8c0,1.103,0.897,2,2,2h14.288l4.306,1.914c0.13,0.058,0.269,0.086,0.406,0.086	C32.19,35.957,32.38,35.902,32.545,35.795z"/></svg>